# xmcd CD database file
#
# Track frame offsets:
#	150
#	4685
#	26857
#	33585
#	62990
#	73316
#	93811
#	105709
#	131677
#	139197
#	163068
#	171757
#	197929
#	209544
#	222061
#	232014
#	250382
#	260540
#
# Disc length: 3673 seconds
#
# Revision: 0
# Processed by: cddbd v1.4PL0 Copyright (c) Steve Scherf et al.
# Submitted via: CDex 1.51
#
DISCID=160e5712
DTITLE=John Sherman - Butterfly Blue
DYEAR=2000
DGENRE=New Age
TTITLE0=Mojave Haiku
TTITLE1=Escondido Falls
TTITLE2=Under The Oak 
TTITLE3=Butterfly Blue
TTITLE4=Riparian Music
TTITLE5=Cougar Run
TTITLE6=Quiet Canyon 
TTITLE7=January's June
TTITLE8=A Renaissance At Hand
TTITLE9=Earthdance 
TTITLE10=Leaves
TTITLE11=Hahamongna Trail
TTITLE12=Burning Oak
TTITLE13=March of the Mountain Frogs
TTITLE14=A Winter Spring
TTITLE15=Coyote
TTITLE16=On a Western Rock  
TTITLE17=Canticle of Brother Sun
EXTD=YEAR: 2000
EXTT0=
EXTT1=
EXTT2=
EXTT3=
EXTT4=
EXTT5=
EXTT6=
EXTT7=
EXTT8=
EXTT9=
EXTT10=
EXTT11=
EXTT12=
EXTT13=
EXTT14=
EXTT15=
EXTT16=
EXTT17=
PLAYORDER=
